<?xml version="1.0" standalone="no"?>
<!DOCTYPE svg PUBLIC "-//W3C//DTD SVG 20010904//EN"
 "http://www.w3.org/TR/2001/REC-SVG-20010904/DTD/svg10.dtd">
<svg version="1.0" xmlns="http://www.w3.org/2000/svg"
 width="225.000000pt" height="225.000000pt" viewBox="0 0 225.000000 225.000000"
 preserveAspectRatio="xMidYMid meet">

<g transform="translate(0.000000,225.000000) scale(0.100000,-0.100000)"
fill="#000000" stroke="none">
<path d="M240 1576 c0 -2 17 -15 38 -29 38 -24 439 -173 447 -166 4 5 -378
170 -434 188 -35 11 -51 14 -51 7z"/>
<path d="M1790 1215 c0 -178 1 -185 20 -185 19 0 20 7 20 93 0 113 9 130 65
125 l40 -3 3 -107 3 -108 25 0 26 0 -4 109 c-4 140 -14 155 -100 149 l-58 -4
0 58 c0 51 -2 58 -20 58 -19 0 -20 -7 -20 -185z"/>
<path d="M775 1360 c3 -5 11 -10 16 -10 6 0 7 5 4 10 -3 6 -11 10 -16 10 -6 0
-7 -4 -4 -10z"/>
<path d="M596 1277 c-25 -18 -27 -90 -3 -114 11 -11 39 -20 75 -23 56 -5 57
-6 57 -35 0 -26 -4 -30 -29 -33 -45 -5 -76 6 -76 28 0 15 -7 20 -25 20 -20 0
-25 -5 -25 -25 0 -45 32 -65 103 -65 75 0 95 12 104 62 8 56 -16 88 -67 88
-59 0 -92 16 -88 43 3 19 10 22 50 25 39 3 47 0 53 -17 3 -12 15 -21 26 -21
27 0 25 44 -3 64 -28 20 -127 21 -152 3z"/>
<path d="M820 1104 l0 -184 25 0 c24 0 25 3 25 58 l0 57 58 -3 c84 -5 97 12
97 130 0 117 -11 128 -126 126 l-79 -1 0 -183z m148 134 c7 -7 12 -40 12 -78
0 -75 -10 -90 -57 -90 -40 0 -53 21 -53 90 0 69 13 90 53 90 18 0 38 -5 45
-12z"/>
<path d="M1107 1278 c-9 -7 -19 -25 -23 -40 -5 -25 -3 -28 19 -28 16 0 26 7
30 20 7 28 82 29 97 1 21 -41 14 -48 -48 -43 -75 5 -102 -14 -105 -75 -2 -68
19 -83 120 -83 l83 0 0 110 c0 137 -9 150 -98 150 -32 0 -66 -6 -75 -12z m117
-144 c19 -18 19 -20 6 -45 -16 -28 -96 -27 -105 1 -12 39 3 60 45 60 22 0 45
-7 54 -16z"/>
<path d="M1340 1159 c0 -122 1 -129 20 -129 19 0 20 7 20 93 0 104 11 131 51
125 18 -2 25 -10 27 -30 3 -23 8 -28 29 -28 24 0 25 2 20 37 -9 51 -28 62
-103 61 l-64 -1 0 -128z"/>
<path d="M1556 1274 c-22 -21 -21 -97 1 -115 9 -8 41 -16 72 -19 54 -5 56 -6
56 -35 0 -26 -4 -30 -29 -33 -45 -5 -76 6 -76 28 0 15 -7 20 -25 20 -20 0 -25
-5 -25 -25 0 -45 32 -65 105 -65 77 0 105 20 105 73 0 51 -24 77 -70 77 -59 0
-92 16 -88 43 3 19 10 22 51 25 42 3 49 0 54 -17 8 -31 43 -28 43 3 0 42 -25
56 -95 56 -44 0 -68 -5 -79 -16z"/>
<path d="M1710 940 c0 -11 -4 -20 -10 -20 -5 0 -10 -7 -10 -15 0 -8 5 -15 10
-15 6 0 10 -31 10 -73 0 -80 9 -97 51 -97 30 0 44 14 54 53 6 23 4 27 -14 27
-16 0 -21 -6 -21 -25 0 -32 -28 -33 -35 -2 -4 13 -5 43 -3 68 3 42 5 44 36 47
46 5 43 32 -3 32 -28 0 -35 4 -35 20 0 11 -7 20 -15 20 -8 0 -15 -9 -15 -20z"/>
<path d="M1350 900 c-16 -16 -20 -33 -20 -80 0 -74 20 -100 78 -100 45 0 67
15 76 53 5 22 3 27 -13 27 -13 0 -21 -8 -23 -22 -4 -30 -56 -38 -75 -12 -16
21 -17 78 -3 105 15 27 70 26 77 -1 3 -11 12 -20 19 -20 21 0 17 48 -5 60 -33
17 -89 12 -111 -10z"/>
<path d="M1537 902 c-12 -13 -17 -37 -17 -84 0 -78 16 -98 78 -98 46 0 72 20
72 56 0 31 -27 32 -32 2 -4 -27 -50 -37 -74 -17 -14 12 -19 83 -8 113 9 25 71
21 79 -4 8 -26 35 -26 35 -1 0 32 -28 51 -74 51 -29 0 -48 -6 -59 -18z"/>
<path d="M1833 908 c2 -7 16 -52 31 -100 22 -71 30 -88 46 -88 16 0 24 17 46
88 15 48 29 93 31 100 3 7 -3 12 -15 12 -16 0 -23 -13 -38 -70 -10 -38 -21
-70 -25 -70 -3 0 -15 32 -25 70 -14 56 -22 70 -37 70 -11 0 -17 -5 -14 -12z"/>
</g>
</svg>
